<svg width="30" height="30" viewBox="0 0 40 40" fill="none" xmlns="http://www.w3.org/2000/svg">
<path d="M21.53 0.000610352C26.5955 0.000610352 29.999 3.54361 29.999 8.83261V21.1536C29.999 21.3801 29.9585 21.5826 29.9465 21.8016C29.939 21.9291 29.9405 22.0566 29.93 22.1841C29.924 22.2411 29.9075 22.2936 29.9015 22.3506C29.852 22.8216 29.7755 23.2716 29.669 23.7081C29.642 23.8251 29.6105 23.9376 29.579 24.0516C29.459 24.4746 29.318 24.8781 29.1485 25.2636C29.099 25.3716 29.045 25.4751 28.994 25.5816C28.811 25.9491 28.613 26.3016 28.3835 26.6286L28.1615 26.9166C27.923 27.2256 27.674 27.5211 27.392 27.7896C27.3005 27.8766 27.197 27.9516 27.101 28.0341C26.8115 28.2831 26.516 28.5216 26.1905 28.7256C26.0735 28.7991 25.9445 28.8531 25.8245 28.9191C25.493 29.1021 25.1585 29.2806 24.794 29.4186C24.644 29.4756 24.4775 29.5056 24.3215 29.5551C23.963 29.6661 23.609 29.7816 23.2235 29.8476C23.1265 29.8646 23.0267 29.8766 22.9254 29.886L22.31 29.9301C22.049 29.9496 21.8015 30.0006 21.53 30.0006H8.45602C7.89202 30.0006 7.35352 29.9436 6.83302 29.8581C6.81352 29.8551 6.79552 29.8521 6.77752 29.8491C4.74802 29.4996 3.06352 28.5201 1.88302 27.0426C1.86952 27.0426 1.86952 27.0276 1.85602 27.0141C0.669523 25.5201 -0.000976562 23.5116 -0.000976562 21.1536V8.83261C-0.000976562 3.54361 3.40552 0.000610352 8.45602 0.000610352H21.53ZM21.53 2.09311H8.45602C4.59052 2.09311 2.09302 4.74361 2.09302 8.83261V21.1536C2.09302 22.3011 2.30602 23.3256 2.67052 24.2121C2.71702 24.1566 5.62252 20.6136 5.63602 20.6016C6.67402 19.4166 8.62252 17.6496 11.18 18.7191C11.795 18.9741 12.335 19.3326 12.83 19.6476C13.6895 20.2221 14.195 20.4921 14.72 20.4471C14.9375 20.4171 15.1415 20.3526 15.335 20.2326C16.172 19.7166 18.5375 16.2666 18.68 16.0791C20.315 13.9491 22.835 13.3791 24.935 14.6391C25.076 14.7231 25.6516 15.118 26.2756 15.5627L26.7467 15.9016C27.2147 16.2416 27.6556 16.573 27.9065 16.7856V8.83261C27.9065 4.74361 25.409 2.09311 21.53 2.09311ZM9.71795 6.00001C10.7645 6.00001 11.7121 6.44008 12.3909 7.14216C13.0726 7.81964 13.4999 8.75334 13.4999 9.77245C13.4999 11.8049 11.7993 13.5 9.75719 13.5C7.96213 13.5 6.43161 12.1885 6.08859 10.4905C6.0319 10.2357 5.99992 9.97366 5.99992 9.70296C5.99992 7.65606 7.66271 6.00001 9.71795 6.00001Z" fill="#A4A4A4"/>
</svg>
