<svg width="300" height="240" viewBox="0 0 300 240" fill="none" xmlns="http://www.w3.org/2000/svg">
<path fill-rule="evenodd" clip-rule="evenodd" d="M111.6 162H211.2C215.839 162 219.6 158.239 219.6 153.6C219.6 148.961 215.839 145.2 211.2 145.2C211.2 145.2 204 141.439 204 136.8C204 132.161 208.742 128.4 214.591 128.4H226.8C231.439 128.4 235.2 124.639 235.2 120C235.2 115.361 231.439 111.6 226.8 111.6H200.4C205.039 111.6 208.8 107.839 208.8 103.2C208.8 98.5608 205.039 94.8 200.4 94.8H248.4C253.039 94.8 256.8 91.0392 256.8 86.4C256.8 81.7608 253.039 78 248.4 78H130.8C126.161 78 122.4 81.7608 122.4 86.4C122.4 91.0392 126.161 94.8 130.8 94.8H82.7999C78.1607 94.8 74.3999 98.5608 74.3999 103.2C74.3999 107.839 78.1607 111.6 82.7999 111.6H112.8C117.439 111.6 121.2 115.361 121.2 120C121.2 124.639 117.439 128.4 112.8 128.4H64.7999C60.1607 128.4 56.3999 132.161 56.3999 136.8C56.3999 141.439 60.1607 145.2 64.7999 145.2H111.6C106.961 145.2 103.2 148.961 103.2 153.6C103.2 158.239 106.961 162 111.6 162ZM240 120C240 124.639 243.761 128.4 248.4 128.4C253.039 128.4 256.8 124.639 256.8 120C256.8 115.361 253.039 111.6 248.4 111.6C243.761 111.6 240 115.361 240 120Z" fill="#F5F5F5"/>
<path fill-rule="evenodd" clip-rule="evenodd" d="M141.742 135.968C141.648 136.632 141.6 137.31 141.6 138C141.6 145.953 148.047 152.4 156 152.4C163.953 152.4 170.4 145.953 170.4 138C170.4 137.31 170.351 136.632 170.258 135.968H205.2V168C205.2 169.988 203.588 171.6 201.6 171.6H110.4C108.412 171.6 106.8 169.988 106.8 168V135.968H141.742Z" fill="white"/>
<path fill-rule="evenodd" clip-rule="evenodd" d="M171.6 135.6C171.6 144.216 164.615 151.2 156 151.2C147.384 151.2 140.4 144.216 140.4 135.6C140.4 135.321 140.407 135.043 140.422 134.768H106.8L118.272 100.847C118.767 99.3843 120.139 98.4 121.683 98.4L190.317 98.4C191.861 98.4 193.233 99.3843 193.727 100.847L205.2 134.768H171.578C171.592 135.043 171.6 135.321 171.6 135.6Z" fill="white"/>
<path fill-rule="evenodd" clip-rule="evenodd" d="M169.317 136.745C169.317 143.403 163.355 150 156 150C148.645 150 142.683 143.403 142.683 136.745C142.683 136.53 142.689 135.115 142.702 134.903H117.6L127.394 111.091C127.816 109.961 128.987 109.2 130.305 109.2H181.695C183.013 109.2 184.184 109.961 184.606 111.091L194.4 134.903H169.299C169.311 135.115 169.317 136.53 169.317 136.745Z" fill="#F5F5F5"/>
<path d="M119.594 100.839C119.835 100.128 120.502 99.65 121.252 99.65H190.748C191.498 99.65 192.165 100.128 192.405 100.839L203.95 134.974V167.4C203.95 168.367 203.166 169.15 202.2 169.15H109.8C108.833 169.15 108.05 168.367 108.05 167.4V134.974L119.594 100.839Z" stroke="#DBDBDB" stroke-width="2.5" stroke-linejoin="round"/>
<path d="M123.6 133.15H124.85C124.85 132.46 124.29 131.9 123.6 131.9V133.15ZM123.6 135.65V136.9C124.29 136.9 124.85 136.34 124.85 135.65H123.6ZM123.6 135.65L122.35 135.65C122.35 136.34 122.91 136.9 123.6 136.9V135.65ZM139.629 135.774L139.062 136.888L139.062 136.888L139.629 135.774ZM139.776 135.909L140.864 135.293V135.293L139.776 135.909ZM171.978 135.909L170.889 135.293L170.889 135.293L171.978 135.909ZM172.125 135.774L171.558 134.66L171.558 134.66L172.125 135.774ZM169.801 134.678L168.713 134.063L168.713 134.063L169.801 134.678ZM169.358 136.749L168.108 136.752V136.752L169.358 136.749ZM142.396 136.749L141.146 136.745V136.745L142.396 136.749ZM141.952 134.678L140.864 135.293V135.293L141.952 134.678ZM123.6 133.15V131.9C122.91 131.9 122.35 132.46 122.35 133.15L123.6 133.15ZM114.688 131.9C113.308 131.9 112.188 133.019 112.188 134.4H114.688V131.9ZM117.6 131.9H114.688V134.4H117.6V131.9ZM120.1 134.4C120.1 133.019 118.981 131.9 117.6 131.9V134.4H120.1ZM117.6 136.9C118.981 136.9 120.1 135.781 120.1 134.4H117.6V136.9ZM114.688 136.9H117.6V134.4H114.688V136.9ZM112.188 134.4C112.188 135.781 113.308 136.9 114.688 136.9V134.4H112.188ZM123.6 131.9C122.219 131.9 121.1 133.019 121.1 134.4H123.6V131.9ZM124.85 134.4V133.15H122.35V134.4H124.85ZM124.85 135.65V134.4H122.35V135.65H124.85ZM121.1 134.4C121.1 135.781 122.219 136.9 123.6 136.9V134.4H121.1ZM122.35 134.4L122.35 135.65L124.85 135.65L124.85 134.4L122.35 134.4ZM123.6 136.9H123.6V134.4H123.6V136.9ZM123.6 136.9H123.601V134.4H123.6V136.9ZM123.601 136.9H123.601V134.4H123.601V136.9ZM123.601 136.9H123.602V134.4H123.601V136.9ZM123.602 136.9H123.603V134.4H123.602V136.9ZM123.603 136.9H123.604V134.4H123.603V136.9ZM123.604 136.9H123.605V134.4H123.604V136.9ZM123.605 136.9H123.607V134.4H123.605V136.9ZM123.607 136.9H123.608V134.4H123.607V136.9ZM123.608 136.9H123.61V134.4H123.608V136.9ZM123.61 136.9H123.612V134.4H123.61V136.9ZM123.612 136.9H123.614V134.4H123.612V136.9ZM123.614 136.9H123.616V134.4H123.614V136.9ZM123.616 136.9H123.618V134.4H123.616V136.9ZM123.618 136.9H123.621V134.4H123.618V136.9ZM123.621 136.9H123.623V134.4H123.621V136.9ZM123.623 136.9H123.626V134.4H123.623V136.9ZM123.626 136.9H123.629V134.4H123.626V136.9ZM123.629 136.9H123.632V134.4H123.629V136.9ZM123.632 136.9H123.635V134.4H123.632V136.9ZM123.635 136.9H123.639V134.4H123.635V136.9ZM123.639 136.9H123.642V134.4H123.639V136.9ZM123.642 136.9H123.646V134.4H123.642V136.9ZM123.646 136.9H123.65V134.4H123.646V136.9ZM123.65 136.9H123.654V134.4H123.65V136.9ZM123.654 136.9H123.658V134.4H123.654V136.9ZM123.658 136.9H123.663V134.4H123.658V136.9ZM123.663 136.9H123.667V134.4H123.663V136.9ZM123.667 136.9H123.672V134.4H123.667V136.9ZM123.672 136.9H123.677V134.4H123.672V136.9ZM123.677 136.9H123.682V134.4H123.677V136.9ZM123.682 136.9H123.687V134.4H123.682V136.9ZM123.687 136.9H123.692V134.4H123.687V136.9ZM123.692 136.9H123.697V134.4H123.692V136.9ZM123.697 136.9H123.703V134.4H123.697V136.9ZM123.703 136.9H123.709V134.4H123.703V136.9ZM123.709 136.9H123.715V134.4H123.709V136.9ZM123.715 136.9H123.721V134.4H123.715V136.9ZM123.721 136.9H123.727V134.4H123.721V136.9ZM123.727 136.9H123.733V134.4H123.727V136.9ZM123.733 136.9H123.74V134.4H123.733V136.9ZM123.74 136.9H123.746V134.4H123.74V136.9ZM123.746 136.9H123.753V134.4H123.746V136.9ZM123.753 136.9H123.76V134.4H123.753V136.9ZM123.76 136.9H123.767V134.4H123.76V136.9ZM123.767 136.9H123.775V134.4H123.767V136.9ZM123.775 136.9H123.782V134.4H123.775V136.9ZM123.782 136.9H123.789V134.4H123.782V136.9ZM123.789 136.9H123.797V134.4H123.789V136.9ZM123.797 136.9H123.805V134.4H123.797V136.9ZM123.805 136.9H123.813V134.4H123.805V136.9ZM123.813 136.9H123.821V134.4H123.813V136.9ZM123.821 136.9H123.829V134.4H123.821V136.9ZM123.829 136.9H123.838V134.4H123.829V136.9ZM123.838 136.9H123.846V134.4H123.838V136.9ZM123.846 136.9H123.855V134.4H123.846V136.9ZM123.855 136.9H123.864V134.4H123.855V136.9ZM123.864 136.9H123.873V134.4H123.864V136.9ZM123.873 136.9H123.882V134.4H123.873V136.9ZM123.882 136.9H123.892V134.4H123.882V136.9ZM123.892 136.9H123.901V134.4H123.892V136.9ZM123.901 136.9H123.911V134.4H123.901V136.9ZM123.911 136.9H123.92V134.4H123.911V136.9ZM123.92 136.9H123.93V134.4H123.92V136.9ZM123.93 136.9H123.94V134.4H123.93V136.9ZM123.94 136.9H123.951V134.4H123.94V136.9ZM123.951 136.9H123.961V134.4H123.951V136.9ZM123.961 136.9H123.971V134.4H123.961V136.9ZM123.971 136.9H123.982V134.4H123.971V136.9ZM123.982 136.9H123.993V134.4H123.982V136.9ZM123.993 136.9H124.004V134.4H123.993V136.9ZM124.004 136.9H124.015V134.4H124.004V136.9ZM124.015 136.9H124.026V134.4H124.015V136.9ZM124.026 136.9H124.037V134.4H124.026V136.9ZM124.037 136.9H124.049V134.4H124.037V136.9ZM124.049 136.9H124.061V134.4H124.049V136.9ZM124.061 136.9H124.072V134.4H124.061V136.9ZM124.072 136.9H124.084V134.4H124.072V136.9ZM124.084 136.9H124.096V134.4H124.084V136.9ZM124.096 136.9H124.108V134.4H124.096V136.9ZM124.108 136.9H124.121V134.4H124.108V136.9ZM124.121 136.9H124.133V134.4H124.121V136.9ZM124.133 136.9H124.146V134.4H124.133V136.9ZM124.146 136.9H124.159V134.4H124.146V136.9ZM124.159 136.9H124.171V134.4H124.159V136.9ZM124.171 136.9H124.185V134.4H124.171V136.9ZM124.185 136.9H124.198V134.4H124.185V136.9ZM124.198 136.9H124.211V134.4H124.198V136.9ZM124.211 136.9H124.224V134.4H124.211V136.9ZM124.224 136.9H124.238V134.4H124.224V136.9ZM124.238 136.9H124.252V134.4H124.238V136.9ZM124.252 136.9H124.266V134.4H124.252V136.9ZM124.266 136.9H124.28V134.4H124.266V136.9ZM124.28 136.9H124.294V134.4H124.28V136.9ZM124.294 136.9H124.308V134.4H124.294V136.9ZM124.308 136.9H124.322V134.4H124.308V136.9ZM124.322 136.9H124.337V134.4H124.322V136.9ZM124.337 136.9H124.352V134.4H124.337V136.9ZM124.352 136.9H124.366V134.4H124.352V136.9ZM124.366 136.9H124.381V134.4H124.366V136.9ZM124.381 136.9H124.397V134.4H124.381V136.9ZM124.397 136.9H124.412V134.4H124.397V136.9ZM124.412 136.9H124.427V134.4H124.412V136.9ZM124.427 136.9H124.443V134.4H124.427V136.9ZM124.443 136.9H124.458V134.4H124.443V136.9ZM124.458 136.9H124.474V134.4H124.458V136.9ZM124.474 136.9H124.49V134.4H124.474V136.9ZM124.49 136.9H124.506V134.4H124.49V136.9ZM124.506 136.9H124.522V134.4H124.506V136.9ZM124.522 136.9H124.538V134.4H124.522V136.9ZM124.538 136.9H124.555V134.4H124.538V136.9ZM124.555 136.9H124.571V134.4H124.555V136.9ZM124.571 136.9H124.588V134.4H124.571V136.9ZM124.588 136.9H124.605V134.4H124.588V136.9ZM124.605 136.9H124.622V134.4H124.605V136.9ZM124.622 136.9H124.639V134.4H124.622V136.9ZM124.639 136.9H124.656V134.4H124.639V136.9ZM124.656 136.9H124.673V134.4H124.656V136.9ZM124.673 136.9H124.691V134.4H124.673V136.9ZM124.691 136.9H124.709V134.4H124.691V136.9ZM124.709 136.9H124.726V134.4H124.709V136.9ZM124.726 136.9H124.744V134.4H124.726V136.9ZM124.744 136.9H124.762V134.4H124.744V136.9ZM124.762 136.9H124.78V134.4H124.762V136.9ZM124.78 136.9H124.799V134.4H124.78V136.9ZM124.799 136.9H124.817V134.4H124.799V136.9ZM124.817 136.9H124.835V134.4H124.817V136.9ZM124.835 136.9H124.854V134.4H124.835V136.9ZM124.854 136.9H124.873V134.4H124.854V136.9ZM124.873 136.9H124.892V134.4H124.873V136.9ZM124.892 136.9H124.911V134.4H124.892V136.9ZM124.911 136.9H124.93V134.4H124.911V136.9ZM124.93 136.9H124.949V134.4H124.93V136.9ZM124.949 136.9H124.969V134.4H124.949V136.9ZM124.969 136.9H124.988V134.4H124.969V136.9ZM124.988 136.9H125.008V134.4H124.988V136.9ZM125.008 136.9H125.028V134.4H125.008V136.9ZM125.028 136.9H125.047V134.4H125.028V136.9ZM125.047 136.9H125.067V134.4H125.047V136.9ZM125.067 136.9H125.088V134.4H125.067V136.9ZM125.088 136.9H125.108V134.4H125.088V136.9ZM125.108 136.9H125.128V134.4H125.108V136.9ZM125.128 136.9H125.149V134.4H125.128V136.9ZM125.149 136.9H125.169V134.4H125.149V136.9ZM125.169 136.9H125.19V134.4H125.169V136.9ZM125.19 136.9H125.211V134.4H125.19V136.9ZM125.211 136.9H125.232V134.4H125.211V136.9ZM125.232 136.9H125.253V134.4H125.232V136.9ZM125.253 136.9H125.275V134.4H125.253V136.9ZM125.275 136.9H125.296V134.4H125.275V136.9ZM125.296 136.9H125.317V134.4H125.296V136.9ZM125.317 136.9H125.339V134.4H125.317V136.9ZM125.339 136.9H125.361V134.4H125.339V136.9ZM125.361 136.9H125.383V134.4H125.361V136.9ZM125.383 136.9H125.405V134.4H125.383V136.9ZM125.405 136.9H125.427V134.4H125.405V136.9ZM125.427 136.9H125.449V134.4H125.427V136.9ZM125.449 136.9H125.471V134.4H125.449V136.9ZM125.471 136.9H125.494V134.4H125.471V136.9ZM125.494 136.9H125.517V134.4H125.494V136.9ZM125.517 136.9H125.539V134.4H125.517V136.9ZM125.539 136.9H125.562V134.4H125.539V136.9ZM125.562 136.9H125.585V134.4H125.562V136.9ZM125.585 136.9H125.608V134.4H125.585V136.9ZM125.608 136.9H125.631V134.4H125.608V136.9ZM125.631 136.9H125.655V134.4H125.631V136.9ZM125.655 136.9H125.678V134.4H125.655V136.9ZM125.678 136.9H125.702V134.4H125.678V136.9ZM125.702 136.9H125.725V134.4H125.702V136.9ZM125.725 136.9H125.749V134.4H125.725V136.9ZM125.749 136.9H125.773V134.4H125.749V136.9ZM125.773 136.9H125.797V134.4H125.773V136.9ZM125.797 136.9H125.821V134.4H125.797V136.9ZM125.821 136.9H125.845V134.4H125.821V136.9ZM125.845 136.9H125.87V134.4H125.845V136.9ZM125.87 136.9H125.894V134.4H125.87V136.9ZM125.894 136.9H125.919V134.4H125.894V136.9ZM125.919 136.9H125.943V134.4H125.919V136.9ZM125.943 136.9H125.968V134.4H125.943V136.9ZM125.968 136.9H125.993V134.4H125.968V136.9ZM125.993 136.9H126.018V134.4H125.993V136.9ZM126.018 136.9H126.043V134.4H126.018V136.9ZM126.043 136.9H126.069V134.4H126.043V136.9ZM126.069 136.9H126.094V134.4H126.069V136.9ZM126.094 136.9H126.12V134.4H126.094V136.9ZM126.12 136.9H126.145V134.4H126.12V136.9ZM126.145 136.9H126.171V134.4H126.145V136.9ZM126.171 136.9H126.197V134.4H126.171V136.9ZM126.197 136.9H126.223V134.4H126.197V136.9ZM126.223 136.9H126.249V134.4H126.223V136.9ZM126.249 136.9H126.275V134.4H126.249V136.9ZM126.275 136.9H126.301V134.4H126.275V136.9ZM126.301 136.9H126.328V134.4H126.301V136.9ZM126.328 136.9H126.354V134.4H126.328V136.9ZM126.354 136.9H126.381V134.4H126.354V136.9ZM126.381 136.9H126.407V134.4H126.381V136.9ZM126.407 136.9H126.434V134.4H126.407V136.9ZM126.434 136.9H126.461V134.4H126.434V136.9ZM126.461 136.9H126.488V134.4H126.461V136.9ZM126.488 136.9H126.515V134.4H126.488V136.9ZM126.515 136.9H126.543V134.4H126.515V136.9ZM126.543 136.9H126.57V134.4H126.543V136.9ZM126.57 136.9H126.597V134.4H126.57V136.9ZM126.597 136.9H126.625V134.4H126.597V136.9ZM126.625 136.9H126.653V134.4H126.625V136.9ZM126.653 136.9H126.681V134.4H126.653V136.9ZM126.681 136.9H126.708V134.4H126.681V136.9ZM126.708 136.9H126.736V134.4H126.708V136.9ZM126.736 136.9H126.765V134.4H126.736V136.9ZM126.765 136.9H126.793V134.4H126.765V136.9ZM126.793 136.9H126.821V134.4H126.793V136.9ZM126.821 136.9H126.85V134.4H126.821V136.9ZM126.85 136.9H126.878V134.4H126.85V136.9ZM126.878 136.9H126.907V134.4H126.878V136.9ZM126.907 136.9H126.936V134.4H126.907V136.9ZM126.936 136.9H126.964V134.4H126.936V136.9ZM126.964 136.9H126.993V134.4H126.964V136.9ZM126.993 136.9H127.023V134.4H126.993V136.9ZM127.023 136.9H127.052V134.4H127.023V136.9ZM127.052 136.9H127.081V134.4H127.052V136.9ZM127.081 136.9H127.11V134.4H127.081V136.9ZM127.11 136.9H127.14V134.4H127.11V136.9ZM127.14 136.9H127.169V134.4H127.14V136.9ZM127.169 136.9H127.199V134.4H127.169V136.9ZM127.199 136.9H127.229V134.4H127.199V136.9ZM127.229 136.9H127.259V134.4H127.229V136.9ZM127.259 136.9H127.289V134.4H127.259V136.9ZM127.289 136.9H127.319V134.4H127.289V136.9ZM127.319 136.9H127.349V134.4H127.319V136.9ZM127.349 136.9H127.379V134.4H127.349V136.9ZM127.379 136.9H127.41V134.4H127.379V136.9ZM127.41 136.9H127.44V134.4H127.41V136.9ZM127.44 136.9H127.471V134.4H127.44V136.9ZM127.471 136.9H127.502V134.4H127.471V136.9ZM127.502 136.9H127.532V134.4H127.502V136.9ZM127.532 136.9H127.563V134.4H127.532V136.9ZM127.563 136.9H127.594V134.4H127.563V136.9ZM127.594 136.9H127.625V134.4H127.594V136.9ZM127.625 136.9H127.657V134.4H127.625V136.9ZM127.657 136.9H127.688V134.4H127.657V136.9ZM127.688 136.9H127.719V134.4H127.688V136.9ZM127.719 136.9H127.751V134.4H127.719V136.9ZM127.751 136.9H127.782V134.4H127.751V136.9ZM127.782 136.9H127.814V134.4H127.782V136.9ZM127.814 136.9H127.846V134.4H127.814V136.9ZM127.846 136.9H127.878V134.4H127.846V136.9ZM127.878 136.9H127.91V134.4H127.878V136.9ZM127.91 136.9H127.942V134.4H127.91V136.9ZM127.942 136.9H127.974V134.4H127.942V136.9ZM127.974 136.9H128.006V134.4H127.974V136.9ZM128.006 136.9H128.039V134.4H128.006V136.9ZM128.039 136.9H128.071V134.4H128.039V136.9ZM128.071 136.9H128.104V134.4H128.071V136.9ZM128.104 136.9H128.136V134.4H128.104V136.9ZM128.136 136.9H128.169V134.4H128.136V136.9ZM128.169 136.9H128.202V134.4H128.169V136.9ZM128.202 136.9H128.235V134.4H128.202V136.9ZM128.235 136.9H128.268V134.4H128.235V136.9ZM128.268 136.9H128.301V134.4H128.268V136.9ZM128.301 136.9H128.334V134.4H128.301V136.9ZM128.334 136.9H128.367V134.4H128.334V136.9ZM128.367 136.9H128.401V134.4H128.367V136.9ZM128.401 136.9H128.434V134.4H128.401V136.9ZM128.434 136.9H128.468V134.4H128.434V136.9ZM128.468 136.9H128.501V134.4H128.468V136.9ZM128.501 136.9H128.535V134.4H128.501V136.9ZM128.535 136.9H128.569V134.4H128.535V136.9ZM128.569 136.9H128.603V134.4H128.569V136.9ZM128.603 136.9H128.637V134.4H128.603V136.9ZM128.637 136.9H128.671V134.4H128.637V136.9ZM128.671 136.9H128.705V134.4H128.671V136.9ZM128.705 136.9H128.74V134.4H128.705V136.9ZM128.74 136.9H128.774V134.4H128.74V136.9ZM128.774 136.9H128.808V134.4H128.774V136.9ZM128.808 136.9H128.843V134.4H128.808V136.9ZM128.843 136.9H128.878V134.4H128.843V136.9ZM128.878 136.9H128.912V134.4H128.878V136.9ZM128.912 136.9H128.947V134.4H128.912V136.9ZM128.947 136.9H128.982V134.4H128.947V136.9ZM128.982 136.9H129.017V134.4H128.982V136.9ZM129.017 136.9H129.052V134.4H129.017V136.9ZM129.052 136.9H129.087V134.4H129.052V136.9ZM129.087 136.9H129.123V134.4H129.087V136.9ZM129.123 136.9H129.158V134.4H129.123V136.9ZM129.158 136.9H129.193V134.4H129.158V136.9ZM129.193 136.9H129.229V134.4H129.193V136.9ZM129.229 136.9H129.265V134.4H129.229V136.9ZM129.265 136.9H129.3V134.4H129.265V136.9ZM129.3 136.9H129.336V134.4H129.3V136.9ZM129.336 136.9H129.372V134.4H129.336V136.9ZM129.372 136.9H129.408V134.4H129.372V136.9ZM129.408 136.9H129.444V134.4H129.408V136.9ZM129.444 136.9H129.48V134.4H129.444V136.9ZM129.48 136.9H129.516V134.4H129.48V136.9ZM129.516 136.9H129.553V134.4H129.516V136.9ZM129.553 136.9H129.589V134.4H129.553V136.9ZM129.589 136.9H129.625V134.4H129.589V136.9ZM129.625 136.9H129.662V134.4H129.625V136.9ZM129.662 136.9H129.699V134.4H129.662V136.9ZM129.699 136.9H129.735V134.4H129.699V136.9ZM129.735 136.9H129.772V134.4H129.735V136.9ZM129.772 136.9H129.809V134.4H129.772V136.9ZM129.809 136.9H129.846V134.4H129.809V136.9ZM129.846 136.9H129.883V134.4H129.846V136.9ZM129.883 136.9H129.92V134.4H129.883V136.9ZM129.92 136.9H129.957V134.4H129.92V136.9ZM129.957 136.9H129.994V134.4H129.957V136.9ZM129.994 136.9H130.032V134.4H129.994V136.9ZM130.032 136.9H130.069V134.4H130.032V136.9ZM130.069 136.9H130.107V134.4H130.069V136.9ZM130.107 136.9H130.144V134.4H130.107V136.9ZM130.144 136.9H130.182V134.4H130.144V136.9ZM130.182 136.9H130.22V134.4H130.182V136.9ZM130.22 136.9H130.257V134.4H130.22V136.9ZM130.257 136.9H130.295V134.4H130.257V136.9ZM130.295 136.9H130.333V134.4H130.295V136.9ZM130.333 136.9H130.371V134.4H130.333V136.9ZM130.371 136.9H130.41V134.4H130.371V136.9ZM130.41 136.9H130.448V134.4H130.41V136.9ZM130.448 136.9H130.486V134.4H130.448V136.9ZM130.486 136.9H130.524V134.4H130.486V136.9ZM130.524 136.9H130.563V134.4H130.524V136.9ZM130.563 136.9H130.601V134.4H130.563V136.9ZM130.601 136.9H130.64V134.4H130.601V136.9ZM130.64 136.9H130.679V134.4H130.64V136.9ZM130.679 136.9H130.717V134.4H130.679V136.9ZM130.717 136.9H130.756V134.4H130.717V136.9ZM130.756 136.9H130.795V134.4H130.756V136.9ZM130.795 136.9H130.834V134.4H130.795V136.9ZM130.834 136.9H130.873V134.4H130.834V136.9ZM130.873 136.9H130.912V134.4H130.873V136.9ZM130.912 136.9H130.951V134.4H130.912V136.9ZM130.951 136.9H130.991V134.4H130.951V136.9ZM130.991 136.9H131.03V134.4H130.991V136.9ZM131.03 136.9H131.069V134.4H131.03V136.9ZM131.069 136.9H131.109V134.4H131.069V136.9ZM131.109 136.9H131.148V134.4H131.109V136.9ZM131.148 136.9H131.188V134.4H131.148V136.9ZM131.188 136.9H131.228V134.4H131.188V136.9ZM131.228 136.9H131.268V134.4H131.228V136.9ZM131.268 136.9H131.307V134.4H131.268V136.9ZM131.307 136.9H131.347V134.4H131.307V136.9ZM131.347 136.9H131.387V134.4H131.347V136.9ZM131.387 136.9H131.427V134.4H131.387V136.9ZM131.427 136.9H131.467V134.4H131.427V136.9ZM131.467 136.9H131.508V134.4H131.467V136.9ZM131.508 136.9H131.548V134.4H131.508V136.9ZM131.548 136.9H131.588V134.4H131.548V136.9ZM131.588 136.9H131.629V134.4H131.588V136.9ZM131.629 136.9H131.669V134.4H131.629V136.9ZM131.669 136.9H131.71V134.4H131.669V136.9ZM131.71 136.9H131.75V134.4H131.71V136.9ZM131.75 136.9H131.791V134.4H131.75V136.9ZM131.791 136.9H131.832V134.4H131.791V136.9ZM131.832 136.9H131.872V134.4H131.832V136.9ZM131.872 136.9H131.913V134.4H131.872V136.9ZM131.913 136.9H131.954V134.4H131.913V136.9ZM131.954 136.9H131.995V134.4H131.954V136.9ZM131.995 136.9H132.036V134.4H131.995V136.9ZM132.036 136.9H132.077V134.4H132.036V136.9ZM132.077 136.9H132.119V134.4H132.077V136.9ZM132.119 136.9H132.16V134.4H132.119V136.9ZM132.16 136.9H132.201V134.4H132.16V136.9ZM132.201 136.9H132.243V134.4H132.201V136.9ZM132.243 136.9H132.284V134.4H132.243V136.9ZM132.284 136.9H132.326V134.4H132.284V136.9ZM132.326 136.9H132.367V134.4H132.326V136.9ZM132.367 136.9H132.409V134.4H132.367V136.9ZM132.409 136.9H132.451V134.4H132.409V136.9ZM132.451 136.9H132.493V134.4H132.451V136.9ZM132.493 136.9H132.534V134.4H132.493V136.9ZM132.534 136.9H132.576V134.4H132.534V136.9ZM132.576 136.9H132.618V134.4H132.576V136.9ZM132.618 136.9H132.66V134.4H132.618V136.9ZM132.66 136.9H132.702V134.4H132.66V136.9ZM132.702 136.9H132.745V134.4H132.702V136.9ZM132.745 136.9H132.787V134.4H132.745V136.9ZM132.787 136.9H132.829V134.4H132.787V136.9ZM132.829 136.9H132.871V134.4H132.829V136.9ZM132.871 136.9H132.914V134.4H132.871V136.9ZM132.914 136.9H132.956V134.4H132.914V136.9ZM132.956 136.9H132.999V134.4H132.956V136.9ZM132.999 136.9H133.041V134.4H132.999V136.9ZM133.041 136.9H133.084V134.4H133.041V136.9ZM133.084 136.9H133.127V134.4H133.084V136.9ZM133.127 136.9H133.17V134.4H133.127V136.9ZM133.17 136.9H133.212V134.4H133.17V136.9ZM133.212 136.9H133.255V134.4H133.212V136.9ZM133.255 136.9H133.298V134.4H133.255V136.9ZM133.298 136.9H133.341V134.4H133.298V136.9ZM133.341 136.9H133.384V134.4H133.341V136.9ZM133.384 136.9H133.427V134.4H133.384V136.9ZM133.427 136.9H133.471V134.4H133.427V136.9ZM133.471 136.9H133.514V134.4H133.471V136.9ZM133.514 136.9H133.557V134.4H133.514V136.9ZM133.557 136.9H133.6V134.4H133.557V136.9ZM133.6 136.9H133.644V134.4H133.6V136.9ZM133.644 136.9H133.687V134.4H133.644V136.9ZM133.687 136.9H133.731V134.4H133.687V136.9ZM133.731 136.9H133.774V134.4H133.731V136.9ZM133.774 136.9H133.818V134.4H133.774V136.9ZM133.818 136.9H133.862V134.4H133.818V136.9ZM133.862 136.9H133.905V134.4H133.862V136.9ZM133.905 136.9H133.949V134.4H133.905V136.9ZM133.949 136.9H133.993V134.4H133.949V136.9ZM133.993 136.9H134.037V134.4H133.993V136.9ZM134.037 136.9H134.081V134.4H134.037V136.9ZM134.081 136.9H134.125V134.4H134.081V136.9ZM134.125 136.9H134.169V134.4H134.125V136.9ZM134.169 136.9H134.213V134.4H134.169V136.9ZM134.213 136.9H134.257V134.4H134.213V136.9ZM134.257 136.9H134.302V134.4H134.257V136.9ZM134.302 136.9H134.346V134.4H134.302V136.9ZM134.346 136.9H134.39V134.4H134.346V136.9ZM134.39 136.9H134.435V134.4H134.39V136.9ZM134.435 136.9H134.479V134.4H134.435V136.9ZM134.479 136.9H134.523V134.4H134.479V136.9ZM134.523 136.9H134.568V134.4H134.523V136.9ZM134.568 136.9H134.613V134.4H134.568V136.9ZM134.613 136.9H134.657V134.4H134.613V136.9ZM134.657 136.9H134.702V134.4H134.657V136.9ZM134.702 136.9H134.747V134.4H134.702V136.9ZM134.747 136.9H134.791V134.4H134.747V136.9ZM134.791 136.9H134.836V134.4H134.791V136.9ZM134.836 136.9H134.881V134.4H134.836V136.9ZM134.881 136.9H134.926V134.4H134.881V136.9ZM134.926 136.9H134.971V134.4H134.926V136.9ZM134.971 136.9H135.016V134.4H134.971V136.9ZM135.016 136.9H135.061V134.4H135.016V136.9ZM135.061 136.9H135.106V134.4H135.061V136.9ZM135.106 136.9H135.151V134.4H135.106V136.9ZM135.151 136.9H135.197V134.4H135.151V136.9ZM135.197 136.9H135.242V134.4H135.197V136.9ZM135.242 136.9H135.287V134.4H135.242V136.9ZM135.287 136.9H135.332V134.4H135.287V136.9ZM135.332 136.9H135.378V134.4H135.332V136.9ZM135.378 136.9H135.423V134.4H135.378V136.9ZM135.423 136.9H135.469V134.4H135.423V136.9ZM135.469 136.9H135.514V134.4H135.469V136.9ZM135.514 136.9H135.56V134.4H135.514V136.9ZM135.56 136.9H135.605V134.4H135.56V136.9ZM135.605 136.9H135.651V134.4H135.605V136.9ZM135.651 136.9H135.697V134.4H135.651V136.9ZM135.697 136.9H135.743V134.4H135.697V136.9ZM135.743 136.9H135.788V134.4H135.743V136.9ZM135.788 136.9H135.834V134.4H135.788V136.9ZM135.834 136.9H135.88V134.4H135.834V136.9ZM135.88 136.9H135.926V134.4H135.88V136.9ZM135.926 136.9H135.972V134.4H135.926V136.9ZM135.972 136.9H136.018V134.4H135.972V136.9ZM136.018 136.9H136.064V134.4H136.018V136.9ZM136.064 136.9H136.11V134.4H136.064V136.9ZM136.11 136.9H136.156V134.4H136.11V136.9ZM136.156 136.9H136.202V134.4H136.156V136.9ZM136.202 136.9H136.249V134.4H136.202V136.9ZM136.249 136.9H136.295V134.4H136.249V136.9ZM136.295 136.9H136.341V134.4H136.295V136.9ZM136.341 136.9H136.388V134.4H136.341V136.9ZM136.388 136.9H136.434V134.4H136.388V136.9ZM136.434 136.9H136.48V134.4H136.434V136.9ZM136.48 136.9H136.527V134.4H136.48V136.9ZM136.527 136.9H136.573V134.4H136.527V136.9ZM136.573 136.9H136.62V134.4H136.573V136.9ZM136.62 136.9H136.666V134.4H136.62V136.9ZM136.666 136.9H136.713V134.4H136.666V136.9ZM136.713 136.9H136.76V134.4H136.713V136.9ZM136.76 136.9H136.806V134.4H136.76V136.9ZM136.806 136.9H136.853V134.4H136.806V136.9ZM136.853 136.9H136.9V134.4H136.853V136.9ZM136.9 136.9H136.947V134.4H136.9V136.9ZM136.947 136.9H136.994V134.4H136.947V136.9ZM136.994 136.9H137.04V134.4H136.994V136.9ZM137.04 136.9H137.087V134.4H137.04V136.9ZM137.087 136.9H137.134V134.4H137.087V136.9ZM137.134 136.9H137.181V134.4H137.134V136.9ZM137.181 136.9H137.228V134.4H137.181V136.9ZM137.228 136.9H137.275V134.4H137.228V136.9ZM137.275 136.9H137.322V134.4H137.275V136.9ZM137.322 136.9H137.369V134.4H137.322V136.9ZM137.369 136.9H137.417V134.4H137.369V136.9ZM137.417 136.9H137.464V134.4H137.417V136.9ZM137.464 136.9H137.511V134.4H137.464V136.9ZM137.511 136.9H137.558V134.4H137.511V136.9ZM137.558 136.9H137.606V134.4H137.558V136.9ZM137.606 136.9H137.653V134.4H137.606V136.9ZM137.653 136.9H137.7V134.4H137.653V136.9ZM137.7 136.9H137.748V134.4H137.7V136.9ZM137.748 136.9H137.795V134.4H137.748V136.9ZM137.795 136.9H137.843V134.4H137.795V136.9ZM137.843 136.9H137.89V134.4H137.843V136.9ZM137.89 136.9H137.938V134.4H137.89V136.9ZM137.938 136.9H137.985V134.4H137.938V136.9ZM137.985 136.9H138.033V134.4H137.985V136.9ZM138.033 136.9H138.08V134.4H138.033V136.9ZM138.08 136.9H138.128V134.4H138.08V136.9ZM138.128 136.9H138.176V134.4H138.128V136.9ZM138.176 136.9H138.223V134.4H138.176V136.9ZM138.223 136.9H138.271V134.4H138.223V136.9ZM138.271 136.9H138.319V134.4H138.271V136.9ZM138.319 136.9H138.366V134.4H138.319V136.9ZM138.366 136.9H138.414V134.4H138.366V136.9ZM138.414 136.9H138.462V134.4H138.414V136.9ZM138.462 136.9H138.51V134.4H138.462V136.9ZM138.51 136.9H138.558V134.4H138.51V136.9ZM138.558 136.9H138.606V134.4H138.558V136.9ZM138.606 136.9H138.654V134.4H138.606V136.9ZM138.654 136.9H138.702V134.4H138.654V136.9ZM138.702 136.9H138.75V134.4H138.702V136.9ZM138.75 136.9H138.798V134.4H138.75V136.9ZM138.798 136.9H138.846V134.4H138.798V136.9ZM138.846 136.9H138.894V134.4H138.846V136.9ZM138.894 136.9C139.172 136.9 139.182 136.949 139.062 136.888L140.196 134.66C139.879 134.499 139.457 134.4 138.894 134.4V136.9ZM139.062 136.888C139.015 136.864 138.936 136.817 138.852 136.736C138.766 136.651 138.713 136.569 138.688 136.524L140.864 135.293C140.722 135.043 140.511 134.82 140.196 134.66L139.062 136.888ZM138.688 136.524C138.653 136.463 138.637 136.414 138.631 136.393C138.626 136.373 138.627 136.372 138.631 136.4C138.634 136.428 138.638 136.473 138.641 136.543C138.644 136.612 138.645 136.696 138.645 136.8H141.145C141.145 136.56 141.14 136.316 141.112 136.091C141.084 135.869 141.025 135.579 140.864 135.293L138.688 136.524ZM138.645 136.8C138.645 146.188 146.415 153.7 155.877 153.7V151.2C147.74 151.2 141.145 144.752 141.145 136.8H138.645ZM155.877 153.7C165.339 153.7 173.108 146.188 173.108 136.8H170.608C170.608 144.752 164.013 151.2 155.877 151.2V153.7ZM173.108 136.8C173.108 136.696 173.109 136.612 173.112 136.543C173.115 136.473 173.119 136.428 173.123 136.4C173.126 136.372 173.128 136.373 173.122 136.393C173.116 136.414 173.1 136.463 173.066 136.524L170.889 135.293C170.728 135.579 170.669 135.869 170.642 136.091C170.614 136.316 170.608 136.56 170.608 136.8H173.108ZM173.066 136.524C173.04 136.569 172.988 136.651 172.901 136.736C172.818 136.817 172.739 136.864 172.692 136.888L171.558 134.66C171.243 134.82 171.031 135.043 170.889 135.293L173.066 136.524ZM172.692 136.888C172.571 136.949 172.582 136.9 172.86 136.9V134.4C172.296 134.4 171.874 134.499 171.558 134.66L172.692 136.888ZM172.86 136.9H202.8V134.4H172.86V136.9ZM202.8 136.9C204.181 136.9 205.3 135.781 205.3 134.4H202.8V136.9ZM205.3 134.4C205.3 133.019 204.181 131.9 202.8 131.9V134.4H205.3ZM202.8 131.9H172.86V134.4H202.8V131.9ZM172.86 131.9C171.07 131.9 169.544 132.594 168.713 134.063L170.889 135.293C171.169 134.799 171.729 134.4 172.86 134.4V131.9ZM168.713 134.063C168.087 135.171 168.107 136.367 168.108 136.752L170.608 136.745C170.607 136.347 170.622 135.767 170.889 135.293L168.713 134.063ZM168.108 136.752C168.108 136.771 168.108 136.786 168.108 136.8H170.608C170.608 136.782 170.608 136.763 170.608 136.745L168.108 136.752ZM168.108 136.8C168.108 143.32 162.685 148.7 155.877 148.7V151.2C164.013 151.2 170.608 144.752 170.608 136.8H168.108ZM155.877 148.7C149.068 148.7 143.645 143.32 143.645 136.8H141.145C141.145 144.752 147.74 151.2 155.877 151.2V148.7ZM143.645 136.8C143.645 136.786 143.645 136.771 143.646 136.752L141.146 136.745C141.145 136.763 141.145 136.782 141.145 136.8H143.645ZM143.646 136.752C143.647 136.367 143.667 135.171 143.04 134.063L140.864 135.293C141.132 135.767 141.147 136.347 141.146 136.745L143.646 136.752ZM143.04 134.063C142.21 132.594 140.684 131.9 138.894 131.9V134.4C140.025 134.4 140.585 134.799 140.864 135.293L143.04 134.063ZM138.894 131.9H138.846V134.4H138.894V131.9ZM138.846 131.9H138.798V134.4H138.846V131.9ZM138.798 131.9H138.75V134.4H138.798V131.9ZM138.75 131.9H138.702V134.4H138.75V131.9ZM138.702 131.9H138.654V134.4H138.702V131.9ZM138.654 131.9H138.606V134.4H138.654V131.9ZM138.606 131.9H138.558V134.4H138.606V131.9ZM138.558 131.9H138.51V134.4H138.558V131.9ZM138.51 131.9H138.462V134.4H138.51V131.9ZM138.462 131.9H138.414V134.4H138.462V131.9ZM138.414 131.9H138.366V134.4H138.414V131.9ZM138.366 131.9H138.319V134.4H138.366V131.9ZM138.319 131.9H138.271V134.4H138.319V131.9ZM138.271 131.9H138.223V134.4H138.271V131.9ZM138.223 131.9H138.176V134.4H138.223V131.9ZM138.176 131.9H138.128V134.4H138.176V131.9ZM138.128 131.9H138.08V134.4H138.128V131.9ZM138.08 131.9H138.033V134.4H138.08V131.9ZM138.033 131.9H137.985V134.4H138.033V131.9ZM137.985 131.9H137.938V134.4H137.985V131.9ZM137.938 131.9H137.89V134.4H137.938V131.9ZM137.89 131.9H137.843V134.4H137.89V131.9ZM137.843 131.9H137.795V134.4H137.843V131.9ZM137.795 131.9H137.748V134.4H137.795V131.9ZM137.748 131.9H137.7V134.4H137.748V131.9ZM137.7 131.9H137.653V134.4H137.7V131.9ZM137.653 131.9H137.606V134.4H137.653V131.9ZM137.606 131.9H137.558V134.4H137.606V131.9ZM137.558 131.9H137.511V134.4H137.558V131.9ZM137.511 131.9H137.464V134.4H137.511V131.9ZM137.464 131.9H137.417V134.4H137.464V131.9ZM137.417 131.9H137.369V134.4H137.417V131.9ZM137.369 131.9H137.322V134.4H137.369V131.9ZM137.322 131.9H137.275V134.4H137.322V131.9ZM137.275 131.9H137.228V134.4H137.275V131.9ZM137.228 131.9H137.181V134.4H137.228V131.9ZM137.181 131.9H137.134V134.4H137.181V131.9ZM137.134 131.9H137.087V134.4H137.134V131.9ZM137.087 131.9H137.04V134.4H137.087V131.9ZM137.04 131.9H136.994V134.4H137.04V131.9ZM136.994 131.9H136.947V134.4H136.994V131.9ZM136.947 131.9H136.9V134.4H136.947V131.9ZM136.9 131.9H136.853V134.4H136.9V131.9ZM136.853 131.9H136.806V134.4H136.853V131.9ZM136.806 131.9H136.76V134.4H136.806V131.9ZM136.76 131.9H136.713V134.4H136.76V131.9ZM136.713 131.9H136.666V134.4H136.713V131.9ZM136.666 131.9H136.62V134.4H136.666V131.9ZM136.62 131.9H136.573V134.4H136.62V131.9ZM136.573 131.9H136.527V134.4H136.573V131.9ZM136.527 131.9H136.48V134.4H136.527V131.9ZM136.48 131.9H136.434V134.4H136.48V131.9ZM136.434 131.9H136.388V134.4H136.434V131.9ZM136.388 131.9H136.341V134.4H136.388V131.9ZM136.341 131.9H136.295V134.4H136.341V131.9ZM136.295 131.9H136.249V134.4H136.295V131.9ZM136.249 131.9H136.202V134.4H136.249V131.9ZM136.202 131.9H136.156V134.4H136.202V131.9ZM136.156 131.9H136.11V134.4H136.156V131.9ZM136.11 131.9H136.064V134.4H136.11V131.9ZM136.064 131.9H136.018V134.4H136.064V131.9ZM136.018 131.9H135.972V134.4H136.018V131.9ZM135.972 131.9H135.926V134.4H135.972V131.9ZM135.926 131.9H135.88V134.4H135.926V131.9ZM135.88 131.9H135.834V134.4H135.88V131.9ZM135.834 131.9H135.788V134.4H135.834V131.9ZM135.788 131.9H135.743V134.4H135.788V131.9ZM135.743 131.9H135.697V134.4H135.743V131.9ZM135.697 131.9H135.651V134.4H135.697V131.9ZM135.651 131.9H135.605V134.4H135.651V131.9ZM135.605 131.9H135.56V134.4H135.605V131.9ZM135.56 131.9H135.514V134.4H135.56V131.9ZM135.514 131.9H135.469V134.4H135.514V131.9ZM135.469 131.9H135.423V134.4H135.469V131.9ZM135.423 131.9H135.378V134.4H135.423V131.9ZM135.378 131.9H135.332V134.4H135.378V131.9ZM135.332 131.9H135.287V134.4H135.332V131.9ZM135.287 131.9H135.242V134.4H135.287V131.9ZM135.242 131.9H135.197V134.4H135.242V131.9ZM135.197 131.9H135.151V134.4H135.197V131.9ZM135.151 131.9H135.106V134.4H135.151V131.9ZM135.106 131.9H135.061V134.4H135.106V131.9ZM135.061 131.9H135.016V134.4H135.061V131.9ZM135.016 131.9H134.971V134.4H135.016V131.9ZM134.971 131.9H134.926V134.4H134.971V131.9ZM134.926 131.9H134.881V134.4H134.926V131.9ZM134.881 131.9H134.836V134.4H134.881V131.9ZM134.836 131.9H134.791V134.4H134.836V131.9ZM134.791 131.9H134.747V134.4H134.791V131.9ZM134.747 131.9H134.702V134.4H134.747V131.9ZM134.702 131.9H134.657V134.4H134.702V131.9ZM134.657 131.9H134.613V134.4H134.657V131.9ZM134.613 131.9H134.568V134.4H134.613V131.9ZM134.568 131.9H134.523V134.4H134.568V131.9ZM134.523 131.9H134.479V134.4H134.523V131.9ZM134.479 131.9H134.435V134.4H134.479V131.9ZM134.435 131.9H134.39V134.4H134.435V131.9ZM134.39 131.9H134.346V134.4H134.39V131.9ZM134.346 131.9H134.302V134.4H134.346V131.9ZM134.302 131.9H134.257V134.4H134.302V131.9ZM134.257 131.9H134.213V134.4H134.257V131.9ZM134.213 131.9H134.169V134.4H134.213V131.9ZM134.169 131.9H134.125V134.4H134.169V131.9ZM134.125 131.9H134.081V134.4H134.125V131.9ZM134.081 131.9H134.037V134.4H134.081V131.9ZM134.037 131.9H133.993V134.4H134.037V131.9ZM133.993 131.9H133.949V134.4H133.993V131.9ZM133.949 131.9H133.905V134.4H133.949V131.9ZM133.905 131.9H133.862V134.4H133.905V131.9ZM133.862 131.9H133.818V134.4H133.862V131.9ZM133.818 131.9H133.774V134.4H133.818V131.9ZM133.774 131.9H133.731V134.4H133.774V131.9ZM133.731 131.9H133.687V134.4H133.731V131.9ZM133.687 131.9H133.644V134.4H133.687V131.9ZM133.644 131.9H133.6V134.4H133.644V131.9ZM133.6 131.9H133.557V134.4H133.6V131.9ZM133.557 131.9H133.514V134.4H133.557V131.9ZM133.514 131.9H133.471V134.4H133.514V131.9ZM133.471 131.9H133.427V134.4H133.471V131.9ZM133.427 131.9H133.384V134.4H133.427V131.9ZM133.384 131.9H133.341V134.4H133.384V131.9ZM133.341 131.9H133.298V134.4H133.341V131.9ZM133.298 131.9H133.255V134.4H133.298V131.9ZM133.255 131.9H133.212V134.4H133.255V131.9ZM133.212 131.9H133.17V134.4H133.212V131.9ZM133.17 131.9H133.127V134.4H133.17V131.9ZM133.127 131.9H133.084V134.4H133.127V131.9ZM133.084 131.9H133.041V134.4H133.084V131.9ZM133.041 131.9H132.999V134.4H133.041V131.9ZM132.999 131.9H132.956V134.4H132.999V131.9ZM132.956 131.9H132.914V134.4H132.956V131.9ZM132.914 131.9H132.871V134.4H132.914V131.9ZM132.871 131.9H132.829V134.4H132.871V131.9ZM132.829 131.9H132.787V134.4H132.829V131.9ZM132.787 131.9H132.745V134.4H132.787V131.9ZM132.745 131.9H132.702V134.4H132.745V131.9ZM132.702 131.9H132.66V134.4H132.702V131.9ZM132.66 131.9H132.618V134.4H132.66V131.9ZM132.618 131.9H132.576V134.4H132.618V131.9ZM132.576 131.9H132.534V134.4H132.576V131.9ZM132.534 131.9H132.493V134.4H132.534V131.9ZM132.493 131.9H132.451V134.4H132.493V131.9ZM132.451 131.9H132.409V134.4H132.451V131.9ZM132.409 131.9H132.367V134.4H132.409V131.9ZM132.367 131.9H132.326V134.4H132.367V131.9ZM132.326 131.9H132.284V134.4H132.326V131.9ZM132.284 131.9H132.243V134.4H132.284V131.9ZM132.243 131.9H132.201V134.4H132.243V131.9ZM132.201 131.9H132.16V134.4H132.201V131.9ZM132.16 131.9H132.119V134.4H132.16V131.9ZM132.119 131.9H132.077V134.4H132.119V131.9ZM132.077 131.9H132.036V134.4H132.077V131.9ZM132.036 131.9H131.995V134.4H132.036V131.9ZM131.995 131.9H131.954V134.4H131.995V131.9ZM131.954 131.9H131.913V134.4H131.954V131.9ZM131.913 131.9H131.872V134.4H131.913V131.9ZM131.872 131.9H131.832V134.4H131.872V131.9ZM131.832 131.9H131.791V134.4H131.832V131.9ZM131.791 131.9H131.75V134.4H131.791V131.9ZM131.75 131.9H131.71V134.4H131.75V131.9ZM131.71 131.9H131.669V134.4H131.71V131.9ZM131.669 131.9H131.629V134.4H131.669V131.9ZM131.629 131.9H131.588V134.4H131.629V131.9ZM131.588 131.9H131.548V134.4H131.588V131.9ZM131.548 131.9H131.508V134.4H131.548V131.9ZM131.508 131.9H131.467V134.4H131.508V131.9ZM131.467 131.9H131.427V134.4H131.467V131.9ZM131.427 131.9H131.387V134.4H131.427V131.9ZM131.387 131.9H131.347V134.4H131.387V131.9ZM131.347 131.9H131.307V134.4H131.347V131.9ZM131.307 131.9H131.268V134.4H131.307V131.9ZM131.268 131.9H131.228V134.4H131.268V131.9ZM131.228 131.9H131.188V134.4H131.228V131.9ZM131.188 131.9H131.148V134.4H131.188V131.9ZM131.148 131.9H131.109V134.4H131.148V131.9ZM131.109 131.9H131.069V134.4H131.109V131.9ZM131.069 131.9H131.03V134.4H131.069V131.9ZM131.03 131.9H130.991V134.4H131.03V131.9ZM130.991 131.9H130.951V134.4H130.991V131.9ZM130.951 131.9H130.912V134.4H130.951V131.9ZM130.912 131.9H130.873V134.4H130.912V131.9ZM130.873 131.9H130.834V134.4H130.873V131.9ZM130.834 131.9H130.795V134.4H130.834V131.9ZM130.795 131.9H130.756V134.4H130.795V131.9ZM130.756 131.9H130.717V134.4H130.756V131.9ZM130.717 131.9H130.679V134.4H130.717V131.9ZM130.679 131.9H130.64V134.4H130.679V131.9ZM130.64 131.9H130.601V134.4H130.64V131.9ZM130.601 131.9H130.563V134.4H130.601V131.9ZM130.563 131.9H130.524V134.4H130.563V131.9ZM130.524 131.9H130.486V134.4H130.524V131.9ZM130.486 131.9H130.448V134.4H130.486V131.9ZM130.448 131.9H130.41V134.4H130.448V131.9ZM130.41 131.9H130.371V134.4H130.41V131.9ZM130.371 131.9H130.333V134.4H130.371V131.9ZM130.333 131.9H130.295V134.4H130.333V131.9ZM130.295 131.9H130.257V134.4H130.295V131.9ZM130.257 131.9H130.22V134.4H130.257V131.9ZM130.22 131.9H130.182V134.4H130.22V131.9ZM130.182 131.9H130.144V134.4H130.182V131.9ZM130.144 131.9H130.107V134.4H130.144V131.9ZM130.107 131.9H130.069V134.4H130.107V131.9ZM130.069 131.9H130.032V134.4H130.069V131.9ZM130.032 131.9H129.994V134.4H130.032V131.9ZM129.994 131.9H129.957V134.4H129.994V131.9ZM129.957 131.9H129.92V134.4H129.957V131.9ZM129.92 131.9H129.883V134.4H129.92V131.9ZM129.883 131.9H129.846V134.4H129.883V131.9ZM129.846 131.9H129.809V134.4H129.846V131.9ZM129.809 131.9H129.772V134.4H129.809V131.9ZM129.772 131.9H129.735V134.4H129.772V131.9ZM129.735 131.9H129.699V134.4H129.735V131.9ZM129.699 131.9H129.662V134.4H129.699V131.9ZM129.662 131.9H129.625V134.4H129.662V131.9ZM129.625 131.9H129.589V134.4H129.625V131.9ZM129.589 131.9H129.553V134.4H129.589V131.9ZM129.553 131.9H129.516V134.4H129.553V131.9ZM129.516 131.9H129.48V134.4H129.516V131.9ZM129.48 131.9H129.444V134.4H129.48V131.9ZM129.444 131.9H129.408V134.4H129.444V131.9ZM129.408 131.9H129.372V134.4H129.408V131.9ZM129.372 131.9H129.336V134.4H129.372V131.9ZM129.336 131.9H129.3V134.4H129.336V131.9ZM129.3 131.9H129.265V134.4H129.3V131.9ZM129.265 131.9H129.229V134.4H129.265V131.9ZM129.229 131.9H129.193V134.4H129.229V131.9ZM129.193 131.9H129.158V134.4H129.193V131.9ZM129.158 131.9H129.123V134.4H129.158V131.9ZM129.123 131.9H129.087V134.4H129.123V131.9ZM129.087 131.9H129.052V134.4H129.087V131.9ZM129.052 131.9H129.017V134.4H129.052V131.9ZM129.017 131.9H128.982V134.4H129.017V131.9ZM128.982 131.9H128.947V134.4H128.982V131.9ZM128.947 131.9H128.912V134.4H128.947V131.9ZM128.912 131.9H128.878V134.4H128.912V131.9ZM128.878 131.9H128.843V134.4H128.878V131.9ZM128.843 131.9H128.808V134.4H128.843V131.9ZM128.808 131.9H128.774V134.4H128.808V131.9ZM128.774 131.9H128.74V134.4H128.774V131.9ZM128.74 131.9H128.705V134.4H128.74V131.9ZM128.705 131.9H128.671V134.4H128.705V131.9ZM128.671 131.9H128.637V134.4H128.671V131.9ZM128.637 131.9H128.603V134.4H128.637V131.9ZM128.603 131.9H128.569V134.4H128.603V131.9ZM128.569 131.9H128.535V134.4H128.569V131.9ZM128.535 131.9H128.501V134.4H128.535V131.9ZM128.501 131.9H128.468V134.4H128.501V131.9ZM128.468 131.9H128.434V134.4H128.468V131.9ZM128.434 131.9H128.401V134.4H128.434V131.9ZM128.401 131.9H128.367V134.4H128.401V131.9ZM128.367 131.9H128.334V134.4H128.367V131.9ZM128.334 131.9H128.301V134.4H128.334V131.9ZM128.301 131.9H128.268V134.4H128.301V131.9ZM128.268 131.9H128.235V134.4H128.268V131.9ZM128.235 131.9H128.202V134.4H128.235V131.9ZM128.202 131.9H128.169V134.4H128.202V131.9ZM128.169 131.9H128.136V134.4H128.169V131.9ZM128.136 131.9H128.104V134.4H128.136V131.9ZM128.104 131.9H128.071V134.4H128.104V131.9ZM128.071 131.9H128.039V134.4H128.071V131.9ZM128.039 131.9H128.006V134.4H128.039V131.9ZM128.006 131.9H127.974V134.4H128.006V131.9ZM127.974 131.9H127.942V134.4H127.974V131.9ZM127.942 131.9H127.91V134.4H127.942V131.9ZM127.91 131.9H127.878V134.4H127.91V131.9ZM127.878 131.9H127.846V134.4H127.878V131.9ZM127.846 131.9H127.814V134.4H127.846V131.9ZM127.814 131.9H127.782V134.4H127.814V131.9ZM127.782 131.9H127.751V134.4H127.782V131.9ZM127.751 131.9H127.719V134.4H127.751V131.9ZM127.719 131.9H127.688V134.4H127.719V131.9ZM127.688 131.9H127.657V134.4H127.688V131.9ZM127.657 131.9H127.625V134.4H127.657V131.9ZM127.625 131.9H127.594V134.4H127.625V131.9ZM127.594 131.9H127.563V134.4H127.594V131.9ZM127.563 131.9H127.532V134.4H127.563V131.9ZM127.532 131.9H127.502V134.4H127.532V131.9ZM127.502 131.9H127.471V134.4H127.502V131.9ZM127.471 131.9H127.44V134.4H127.471V131.9ZM127.44 131.9H127.41V134.4H127.44V131.9ZM127.41 131.9H127.379V134.4H127.41V131.9ZM127.379 131.9H127.349V134.4H127.379V131.9ZM127.349 131.9H127.319V134.4H127.349V131.9ZM127.319 131.9H127.289V134.4H127.319V131.9ZM127.289 131.9H127.259V134.4H127.289V131.9ZM127.259 131.9H127.229V134.4H127.259V131.9ZM127.229 131.9H127.199V134.4H127.229V131.9ZM127.199 131.9H127.169V134.4H127.199V131.9ZM127.169 131.9H127.14V134.4H127.169V131.9ZM127.14 131.9H127.11V134.4H127.14V131.9ZM127.11 131.9H127.081V134.4H127.11V131.9ZM127.081 131.9H127.052V134.4H127.081V131.9ZM127.052 131.9H127.023V134.4H127.052V131.9ZM127.023 131.9H126.993V134.4H127.023V131.9ZM126.993 131.9H126.964V134.4H126.993V131.9ZM126.964 131.9H126.936V134.4H126.964V131.9ZM126.936 131.9H126.907V134.4H126.936V131.9ZM126.907 131.9H126.878V134.4H126.907V131.9ZM126.878 131.9H126.85V134.4H126.878V131.9ZM126.85 131.9H126.821V134.4H126.85V131.9ZM126.821 131.9H126.793V134.4H126.821V131.9ZM126.793 131.9H126.765V134.4H126.793V131.9ZM126.765 131.9H126.736V134.4H126.765V131.9ZM126.736 131.9H126.708V134.4H126.736V131.9ZM126.708 131.9H126.681V134.4H126.708V131.9ZM126.681 131.9H126.653V134.4H126.681V131.9ZM126.653 131.9H126.625V134.4H126.653V131.9ZM126.625 131.9H126.597V134.4H126.625V131.9ZM126.597 131.9H126.57V134.4H126.597V131.9ZM126.57 131.9H126.543V134.4H126.57V131.9ZM126.543 131.9H126.515V134.4H126.543V131.9ZM126.515 131.9H126.488V134.4H126.515V131.9ZM126.488 131.9H126.461V134.4H126.488V131.9ZM126.461 131.9H126.434V134.4H126.461V131.9ZM126.434 131.9H126.407V134.4H126.434V131.9ZM126.407 131.9H126.381V134.4H126.407V131.9ZM126.381 131.9H126.354V134.4H126.381V131.9ZM126.354 131.9H126.328V134.4H126.354V131.9ZM126.328 131.9H126.301V134.4H126.328V131.9ZM126.301 131.9H126.275V134.4H126.301V131.9ZM126.275 131.9H126.249V134.4H126.275V131.9ZM126.249 131.9H126.223V134.4H126.249V131.9ZM126.223 131.9H126.197V134.4H126.223V131.9ZM126.197 131.9H126.171V134.4H126.197V131.9ZM126.171 131.9H126.145V134.4H126.171V131.9ZM126.145 131.9H126.12V134.4H126.145V131.9ZM126.12 131.9H126.094V134.4H126.12V131.9ZM126.094 131.9H126.069V134.4H126.094V131.9ZM126.069 131.9H126.043V134.4H126.069V131.9ZM126.043 131.9H126.018V134.4H126.043V131.9ZM126.018 131.9H125.993V134.4H126.018V131.9ZM125.993 131.9H125.968V134.4H125.993V131.9ZM125.968 131.9H125.943V134.4H125.968V131.9ZM125.943 131.9H125.919V134.4H125.943V131.9ZM125.919 131.9H125.894V134.4H125.919V131.9ZM125.894 131.9H125.87V134.4H125.894V131.9ZM125.87 131.9H125.845V134.4H125.87V131.9ZM125.845 131.9H125.821V134.4H125.845V131.9ZM125.821 131.9H125.797V134.4H125.821V131.9ZM125.797 131.9H125.773V134.4H125.797V131.9ZM125.773 131.9H125.749V134.4H125.773V131.9ZM125.749 131.9H125.725V134.4H125.749V131.9ZM125.725 131.9H125.702V134.4H125.725V131.9ZM125.702 131.9H125.678V134.4H125.702V131.9ZM125.678 131.9H125.655V134.4H125.678V131.9ZM125.655 131.9H125.631V134.4H125.655V131.9ZM125.631 131.9H125.608V134.4H125.631V131.9ZM125.608 131.9H125.585V134.4H125.608V131.9ZM125.585 131.9H125.562V134.4H125.585V131.9ZM125.562 131.9H125.539V134.4H125.562V131.9ZM125.539 131.9H125.517V134.4H125.539V131.9ZM125.517 131.9H125.494V134.4H125.517V131.9ZM125.494 131.9H125.471V134.4H125.494V131.9ZM125.471 131.9H125.449V134.4H125.471V131.9ZM125.449 131.9H125.427V134.4H125.449V131.9ZM125.427 131.9H125.405V134.4H125.427V131.9ZM125.405 131.9H125.383V134.4H125.405V131.9ZM125.383 131.9H125.361V134.4H125.383V131.9ZM125.361 131.9H125.339V134.4H125.361V131.9ZM125.339 131.9H125.317V134.4H125.339V131.9ZM125.317 131.9H125.296V134.4H125.317V131.9ZM125.296 131.9H125.275V134.4H125.296V131.9ZM125.275 131.9H125.253V134.4H125.275V131.9ZM125.253 131.9H125.232V134.4H125.253V131.9ZM125.232 131.9H125.211V134.4H125.232V131.9ZM125.211 131.9H125.19V134.4H125.211V131.9ZM125.19 131.9H125.169V134.4H125.19V131.9ZM125.169 131.9H125.149V134.4H125.169V131.9ZM125.149 131.9H125.128V134.4H125.149V131.9ZM125.128 131.9H125.108V134.4H125.128V131.9ZM125.108 131.9H125.088V134.4H125.108V131.9ZM125.088 131.9H125.067V134.4H125.088V131.9ZM125.067 131.9H125.047V134.4H125.067V131.9ZM125.047 131.9H125.028V134.4H125.047V131.9ZM125.028 131.9H125.008V134.4H125.028V131.9ZM125.008 131.9H124.988V134.4H125.008V131.9ZM124.988 131.9H124.969V134.4H124.988V131.9ZM124.969 131.9H124.949V134.4H124.969V131.9ZM124.949 131.9H124.93V134.4H124.949V131.9ZM124.93 131.9H124.911V134.4H124.93V131.9ZM124.911 131.9H124.892V134.4H124.911V131.9ZM124.892 131.9H124.873V134.4H124.892V131.9ZM124.873 131.9H124.854V134.4H124.873V131.9ZM124.854 131.9H124.835V134.4H124.854V131.9ZM124.835 131.9H124.817V134.4H124.835V131.9ZM124.817 131.9H124.799V134.4H124.817V131.9ZM124.799 131.9H124.78V134.4H124.799V131.9ZM124.78 131.9H124.762V134.4H124.78V131.9ZM124.762 131.9H124.744V134.4H124.762V131.9ZM124.744 131.9H124.726V134.4H124.744V131.9ZM124.726 131.9H124.709V134.4H124.726V131.9ZM124.709 131.9H124.691V134.4H124.709V131.9ZM124.691 131.9H124.673V134.4H124.691V131.9ZM124.673 131.9H124.656V134.4H124.673V131.9ZM124.656 131.9H124.639V134.4H124.656V131.9ZM124.639 131.9H124.622V134.4H124.639V131.9ZM124.622 131.9H124.605V134.4H124.622V131.9ZM124.605 131.9H124.588V134.4H124.605V131.9ZM124.588 131.9H124.571V134.4H124.588V131.9ZM124.571 131.9H124.555V134.4H124.571V131.9ZM124.555 131.9H124.538V134.4H124.555V131.9ZM124.538 131.9H124.522V134.4H124.538V131.9ZM124.522 131.9H124.506V134.4H124.522V131.9ZM124.506 131.9H124.49V134.4H124.506V131.9ZM124.49 131.9H124.474V134.4H124.49V131.9ZM124.474 131.9H124.458V134.4H124.474V131.9ZM124.458 131.9H124.443V134.4H124.458V131.9ZM124.443 131.9H124.427V134.4H124.443V131.9ZM124.427 131.9H124.412V134.4H124.427V131.9ZM124.412 131.9H124.397V134.4H124.412V131.9ZM124.397 131.9H124.381V134.4H124.397V131.9ZM124.381 131.9H124.366V134.4H124.381V131.9ZM124.366 131.9H124.352V134.4H124.366V131.9ZM124.352 131.9H124.337V134.4H124.352V131.9ZM124.337 131.9H124.322V134.4H124.337V131.9ZM124.322 131.9H124.308V134.4H124.322V131.9ZM124.308 131.9H124.294V134.4H124.308V131.9ZM124.294 131.9H124.28V134.4H124.294V131.9ZM124.28 131.9H124.266V134.4H124.28V131.9ZM124.266 131.9H124.252V134.4H124.266V131.9ZM124.252 131.9H124.238V134.4H124.252V131.9ZM124.238 131.9H124.224V134.4H124.238V131.9ZM124.224 131.9H124.211V134.4H124.224V131.9ZM124.211 131.9H124.198V134.4H124.211V131.9ZM124.198 131.9H124.185V134.4H124.198V131.9ZM124.185 131.9H124.171V134.4H124.185V131.9ZM124.171 131.9H124.159V134.4H124.171V131.9ZM124.159 131.9H124.146V134.4H124.159V131.9ZM124.146 131.9H124.133V134.4H124.146V131.9ZM124.133 131.9H124.121V134.4H124.133V131.9ZM124.121 131.9H124.108V134.4H124.121V131.9ZM124.108 131.9H124.096V134.4H124.108V131.9ZM124.096 131.9H124.084V134.4H124.096V131.9ZM124.084 131.9H124.072V134.4H124.084V131.9ZM124.072 131.9H124.061V134.4H124.072V131.9ZM124.061 131.9H124.049V134.4H124.061V131.9ZM124.049 131.9H124.037V134.4H124.049V131.9ZM124.037 131.9H124.026V134.4H124.037V131.9ZM124.026 131.9H124.015V134.4H124.026V131.9ZM124.015 131.9H124.004V134.4H124.015V131.9ZM124.004 131.9H123.993V134.4H124.004V131.9ZM123.993 131.9H123.982V134.4H123.993V131.9ZM123.982 131.9H123.971V134.4H123.982V131.9ZM123.971 131.9H123.961V134.4H123.971V131.9ZM123.961 131.9H123.951V134.4H123.961V131.9ZM123.951 131.9H123.94V134.4H123.951V131.9ZM123.94 131.9H123.93V134.4H123.94V131.9ZM123.93 131.9H123.92V134.4H123.93V131.9ZM123.92 131.9H123.911V134.4H123.92V131.9ZM123.911 131.9H123.901V134.4H123.911V131.9ZM123.901 131.9H123.892V134.4H123.901V131.9ZM123.892 131.9H123.882V134.4H123.892V131.9ZM123.882 131.9H123.873V134.4H123.882V131.9ZM123.873 131.9H123.864V134.4H123.873V131.9ZM123.864 131.9H123.855V134.4H123.864V131.9ZM123.855 131.9H123.846V134.4H123.855V131.9ZM123.846 131.9H123.838V134.4H123.846V131.9ZM123.838 131.9H123.829V134.4H123.838V131.9ZM123.829 131.9H123.821V134.4H123.829V131.9ZM123.821 131.9H123.813V134.4H123.821V131.9ZM123.813 131.9H123.805V134.4H123.813V131.9ZM123.805 131.9H123.797V134.4H123.805V131.9ZM123.797 131.9H123.789V134.4H123.797V131.9ZM123.789 131.9H123.782V134.4H123.789V131.9ZM123.782 131.9H123.775V134.4H123.782V131.9ZM123.775 131.9H123.767V134.4H123.775V131.9ZM123.767 131.9H123.76V134.4H123.767V131.9ZM123.76 131.9H123.753V134.4H123.76V131.9ZM123.753 131.9H123.746V134.4H123.753V131.9ZM123.746 131.9H123.74V134.4H123.746V131.9ZM123.74 131.9H123.733V134.4H123.74V131.9ZM123.733 131.9H123.727V134.4H123.733V131.9ZM123.727 131.9H123.721V134.4H123.727V131.9ZM123.721 131.9H123.715V134.4H123.721V131.9ZM123.715 131.9H123.709V134.4H123.715V131.9ZM123.709 131.9H123.703V134.4H123.709V131.9ZM123.703 131.9H123.697V134.4H123.703V131.9ZM123.697 131.9H123.692V134.4H123.697V131.9ZM123.692 131.9H123.687V134.4H123.692V131.9ZM123.687 131.9H123.682V134.4H123.687V131.9ZM123.682 131.9H123.677V134.4H123.682V131.9ZM123.677 131.9H123.672V134.4H123.677V131.9ZM123.672 131.9H123.667V134.4H123.672V131.9ZM123.667 131.9H123.663V134.4H123.667V131.9ZM123.663 131.9H123.658V134.4H123.663V131.9ZM123.658 131.9H123.654V134.4H123.658V131.9ZM123.654 131.9H123.65V134.4H123.654V131.9ZM123.65 131.9H123.646V134.4H123.65V131.9ZM123.646 131.9H123.642V134.4H123.646V131.9ZM123.642 131.9H123.639V134.4H123.642V131.9ZM123.639 131.9H123.635V134.4H123.639V131.9ZM123.635 131.9H123.632V134.4H123.635V131.9ZM123.632 131.9H123.629V134.4H123.632V131.9ZM123.629 131.9H123.626V134.4H123.629V131.9ZM123.626 131.9H123.623V134.4H123.626V131.9ZM123.623 131.9H123.621V134.4H123.623V131.9ZM123.621 131.9H123.618V134.4H123.621V131.9ZM123.618 131.9H123.616V134.4H123.618V131.9ZM123.616 131.9H123.614V134.4H123.616V131.9ZM123.614 131.9H123.612V134.4H123.614V131.9ZM123.612 131.9H123.61V134.4H123.612V131.9ZM123.61 131.9H123.608V134.4H123.61V131.9ZM123.608 131.9H123.607V134.4H123.608V131.9ZM123.607 131.9H123.605V134.4H123.607V131.9ZM123.605 131.9H123.604V134.4H123.605V131.9ZM123.604 131.9H123.603V134.4H123.604V131.9ZM123.603 131.9H123.602V134.4H123.603V131.9ZM123.602 131.9H123.601V134.4H123.602V131.9ZM123.601 131.9H123.601V134.4H123.601V131.9ZM123.601 131.9H123.6V134.4H123.601V131.9ZM123.6 131.9H123.6V134.4H123.6V131.9ZM122.35 133.15L122.35 134.4L124.85 134.4L124.85 133.15L122.35 133.15Z" fill="#DBDBDB"/>
<path d="M124.533 70.3316L125.466 69.4999H125.466L124.533 70.3316ZM137.853 85.2753L136.92 86.107H136.92L137.853 85.2753ZM137.751 87.0402L138.583 87.9733L138.583 87.9733L137.751 87.0402ZM135.986 86.9388L135.053 87.7705L135.053 87.7705L135.986 86.9388ZM122.667 71.995L123.6 71.1633H123.6L122.667 71.995ZM185.187 70.3316L186.12 71.1633L186.12 71.1633L185.187 70.3316ZM187.053 71.995L187.986 72.8267V72.8267L187.053 71.995ZM173.733 86.9388L174.666 87.7705V87.7705L173.733 86.9388ZM171.968 87.0402L171.137 87.9733L171.137 87.9733L171.968 87.0402ZM171.867 85.2753L172.8 86.107V86.107L171.867 85.2753ZM157.42 66C157.42 64.6193 156.3 63.5 154.92 63.5V66H157.42ZM157.42 86.107V66H154.92V86.107H157.42ZM154.92 88.607C156.3 88.607 157.42 87.4877 157.42 86.107H154.92V88.607ZM152.42 86.107C152.42 87.4877 153.539 88.607 154.92 88.607V86.107H152.42ZM152.42 66V86.107H154.92V66H152.42ZM154.92 63.5C153.539 63.5 152.42 64.6193 152.42 66H154.92V63.5ZM125.466 69.4999C124.548 68.4691 122.967 68.3783 121.937 69.297L123.6 71.1633L125.466 69.4999ZM138.786 84.4436L125.466 69.4999L123.6 71.1633L136.92 86.107L138.786 84.4436ZM138.583 87.9733C139.614 87.0546 139.705 85.4743 138.786 84.4436L136.92 86.107H136.92L138.583 87.9733ZM135.053 87.7705C135.972 88.8012 137.552 88.892 138.583 87.9733L136.92 86.107H136.92L135.053 87.7705ZM121.734 72.8267L135.053 87.7705L136.92 86.107L123.6 71.1633L121.734 72.8267ZM121.937 69.297C120.906 70.2157 120.815 71.796 121.734 72.8267L123.6 71.1633H123.6L121.937 69.297ZM187.783 69.297C186.752 68.3783 185.172 68.4691 184.253 69.4999L186.12 71.1633L186.12 71.1633L187.783 69.297ZM187.986 72.8267C188.905 71.796 188.814 70.2157 187.783 69.297L186.12 71.1633L186.12 71.1633L187.986 72.8267ZM174.666 87.7705L187.986 72.8267L186.12 71.1633L172.8 86.107L174.666 87.7705ZM171.137 87.9733C172.167 88.892 173.748 88.8012 174.666 87.7705L172.8 86.107H172.8L171.137 87.9733ZM170.934 84.4436C170.015 85.4743 170.106 87.0546 171.137 87.9733L172.8 86.107L172.8 86.107L170.934 84.4436ZM184.253 69.4998L170.934 84.4436L172.8 86.107L186.12 71.1633L184.253 69.4998Z" fill="#DBDBDB"/>
</svg>
