<svg fill="#A4A4A4" width="25" height="25" viewBox="0 0 0.75 0.75" xmlns="http://www.w3.org/2000/svg"><path d="M.519.313H.234A.047.047 0 0 0 .187.36v.219a.047.047 0 0 0 .047.047h.281A.047.047 0 0 0 .562.579v-.22A.05.05 0 0 0 .519.312M.25.281H.5V.25a.125.125 0 1 0-.25 0zm.281.002A.08.08 0 0 1 .594.36v.219a.08.08 0 0 1-.078.078H.234A.08.08 0 0 1 .156.579v-.22A.08.08 0 0 1 .219.282V.25a.156.156 0 1 1 .313 0zM.344.438V.45a.13.13 0 0 0 .014.059l.009.017a.01.01 0 0 0 .017 0L.393.509A.13.13 0 0 0 .407.45V.438a.031.031 0 0 0-.063 0m-.031 0a.063.063 0 1 1 .125 0V.45a.2.2 0 0 1-.017.073L.412.54a.041.041 0 0 1-.073 0L.33.523A.2.2 0 0 1 .313.45z"/></svg>